<?xml version="1.0" ?><!DOCTYPE svg  PUBLIC '-//W3C//DTD SVG 1.1//EN'  'http://www.w3.org/Graphics/SVG/1.1/DTD/svg11.dtd'><svg enable-background="new 0 0 128 128" id="Слой_1" version="1.1" viewBox="0 0 128 128" xml:space="preserve" xmlns="http://www.w3.org/2000/svg" xmlns:xlink="http://www.w3.org/1999/xlink"><g/><path d="M119,90.2c-1.1,0-2.4,0.2-3.8,0.6l-21.3,7.4c0-0.1,0-0.1,0-0.2c0-0.1,0-0.2,0-0.3c0-0.2,0-0.3,0-0.5  c0-0.1,0-0.2,0-0.2c0,0,0-0.1,0-0.1c0,0,0-0.1,0-0.1c0-0.2-0.1-0.5-0.1-0.7c0,0,0,0,0-0.1l0,0c-0.9-3.9-4.5-6.8-8.7-6.8H68.2  c-7.8-9.9-25.9-10-26.7-10h-13v-4.8H2v44.1h26.5v-4.2l32.8,10.4c0.2,0.1,5.1,1.5,10.7,1.5h0c3.4,0,6.4-0.5,9-1.6  c6.6-2.7,33.1-16.9,41.1-21.2c2.2-1.2,5.2-4.6,3.5-8.7C124.3,91.7,122.1,90.2,119,90.2z M24.5,114.4H6V78.3h18.5V79v33.8V114.4z   M120.1,99.8c-7.9,4.3-34.3,18.3-40.7,21c-2,0.8-4.5,1.3-7.4,1.3h0c-5.1,0-9.6-1.3-9.6-1.3l-34-10.7V83h13c0.2,0,17.8,0.1,24,9.2  l0.6,0.9h18.9c2.5,0,4.6,1.8,4.9,4.2c0,0,0,0.1,0,0.1c0,0.2,0,0.3,0,0.5c0,0.2,0,0.4-0.1,0.6c0,0.1,0,0.2,0,0.3  c0,0.2-0.1,0.4-0.2,0.6c0,0.1,0,0.2-0.1,0.2c-0.1,0.3-0.2,0.5-0.4,0.7l0,0c-0.8,1.2-2.2,2-3.8,2h-26v4h26c2.7,0,5.2-1.3,6.8-3.3  l24.3-8.4c1-0.3,1.9-0.4,2.7-0.4c1.5,0,2.2,0.5,2.8,1.9C122.6,98,120.7,99.5,120.1,99.8z" fill="#3EBBC4"/><path d="M105.4,73V35.2l4.7,4.7l2.8-2.8l-7.5-7.5V9.4H93.3v8L79,3.2L45.1,37.1l2.8,2.8l4.7-4.7V73H105.4z M97.3,27.1  V13.4h4.1v17.7v0.1V69H56.6V31.2L79,8.8L97.3,27.1z" fill="#3EBBC4"/></svg>